<svg width="24" height="25" viewBox="0 0 24 25" fill="none" xmlns="http://www.w3.org/2000/svg">
<mask id="mask0_295_572" style="mask-type:alpha" maskUnits="userSpaceOnUse" x="0" y="0" width="24" height="25">
<rect y="0.5" width="24" height="24" fill="#D9D9D9"/>
</mask>
<g mask="url(#mask0_295_572)">
<path d="M12 21C10.7577 21 9.58867 20.7638 8.493 20.2915C7.3975 19.8192 6.4445 19.1782 5.634 18.3685C4.8235 17.5588 4.18192 16.6067 3.70925 15.512C3.23642 14.4175 3 13.2479 3 12.0033C3 10.7587 3.23617 9.58867 3.7085 8.493C4.18083 7.3975 4.82183 6.4445 5.6315 5.634C6.44117 4.8235 7.39333 4.18192 8.488 3.70925C9.5825 3.23642 10.7521 3 11.9967 3C13.2413 3 14.4113 3.23625 15.507 3.70875C16.6025 4.18125 17.5555 4.8225 18.366 5.6325C19.1765 6.4425 19.8181 7.395 20.2908 8.49C20.7636 9.585 21 10.755 21 12V12.9885C21 13.8308 20.7108 14.5433 20.1322 15.126C19.5536 15.7087 18.8428 16 18 16C17.4038 16 16.8603 15.8365 16.3693 15.5095C15.8783 15.1827 15.5154 14.7474 15.2807 14.2037C14.8999 14.7512 14.4246 15.1875 13.8548 15.5125C13.2849 15.8375 12.6667 16 12 16C10.8858 16 9.94067 15.6118 9.1645 14.8355C8.38817 14.0593 8 13.1142 8 12C8 10.8858 8.38817 9.94067 9.1645 9.1645C9.94067 8.38817 10.8858 8 12 8C13.1142 8 14.0593 8.38817 14.8355 9.1645C15.6118 9.94067 16 10.8858 16 12V12.9885C16 13.5372 16.1962 14.0096 16.5885 14.4058C16.9808 14.8019 17.4513 15 18 15C18.5487 15 19.0192 14.8019 19.4115 14.4058C19.8038 14.0096 20 13.5372 20 12.9885V12C20 9.76667 19.225 7.875 17.675 6.325C16.125 4.775 14.2333 4 12 4C9.76667 4 7.875 4.775 6.325 6.325C4.775 7.875 4 9.76667 4 12C4 14.2333 4.775 16.125 6.325 17.675C7.875 19.225 9.76667 20 12 20H17V21H12ZM12 15C12.8333 15 13.5417 14.7083 14.125 14.125C14.7083 13.5417 15 12.8333 15 12C15 11.1667 14.7083 10.4583 14.125 9.875C13.5417 9.29167 12.8333 9 12 9C11.1667 9 10.4583 9.29167 9.875 9.875C9.29167 10.4583 9 11.1667 9 12C9 12.8333 9.29167 13.5417 9.875 14.125C10.4583 14.7083 11.1667 15 12 15Z" fill="#221F1C"/>
</g>
</svg>
