<svg width="24" height="25" viewBox="0 0 24 25" fill="none" xmlns="http://www.w3.org/2000/svg">
<mask id="mask0_295_586" style="mask-type:alpha" maskUnits="userSpaceOnUse" x="0" y="0" width="24" height="25">
<rect y="0.5" width="24" height="24" fill="#D9D9D9"/>
</mask>
<g mask="url(#mask0_295_586)">
<path d="M12.0036 12.2308C12.4487 12.2308 12.8286 12.0723 13.1433 11.7552C13.4581 11.4383 13.6156 11.0572 13.6156 10.612C13.6156 10.1668 13.457 9.78683 13.1398 9.472C12.8228 9.15733 12.4417 9 11.9966 9C11.5514 9 11.1715 9.1585 10.8568 9.4755C10.542 9.7925 10.3846 10.1736 10.3846 10.6188C10.3846 11.0639 10.5431 11.4439 10.8603 11.7587C11.1773 12.0734 11.5584 12.2308 12.0036 12.2308ZM12.0001 20.177C13.8796 18.541 15.3655 16.8772 16.4578 15.1855C17.5501 13.4938 18.0963 12.0307 18.0963 10.7962C18.0963 8.96675 17.5171 7.45675 16.3588 6.26625C15.2005 5.07592 13.7476 4.48075 12.0001 4.48075C10.2526 4.48075 8.79964 5.07592 7.64131 6.26625C6.48298 7.45675 5.90381 8.96675 5.90381 10.7962C5.90381 12.0307 6.44998 13.4938 7.54231 15.1855C8.63464 16.8772 10.1206 18.541 12.0001 20.177ZM12.0001 21.5193C9.65006 19.4411 7.87989 17.5029 6.68956 15.7048C5.49906 13.9067 4.90381 12.2706 4.90381 10.7962C4.90381 8.68075 5.59264 6.93583 6.97031 5.5615C8.34781 4.18717 10.0244 3.5 12.0001 3.5C13.9757 3.5 15.6523 4.18717 17.0298 5.5615C18.4075 6.93583 19.0963 8.68075 19.0963 10.7962C19.0963 12.2706 18.5011 13.9067 17.3106 15.7048C16.1202 17.5029 14.3501 19.4411 12.0001 21.5193Z" fill="#221F1C"/>
</g>
</svg>
