<svg width="100" height="100" viewBox="0 0 100 100" fill="none" xmlns="http://www.w3.org/2000/svg">
<mask id="mask0_295_377" style="mask-type:alpha" maskUnits="userSpaceOnUse" x="0" y="0" width="100" height="100">
<rect width="100" height="100" fill="#D9D9D9"/>
</mask>
<g mask="url(#mask0_295_377)">
<path d="M58.4688 86.1823C58.7354 86.2892 58.9757 86.3427 59.1896 86.3427C59.4035 86.3427 59.6438 86.2892 59.9104 86.1823L84.1417 78.7146C84.0611 77.4486 83.683 76.5365 83.0073 75.9781C82.3309 75.4198 81.5656 75.1406 80.7115 75.1406H60.9427C59.1809 75.1406 57.5844 75.0712 56.1531 74.9323C54.7212 74.7934 53.2545 74.4625 51.7531 73.9396L44.6146 71.6396C44.0444 71.4528 43.6347 71.0788 43.3854 70.5177C43.1361 69.9566 43.1049 69.401 43.2917 68.851C43.4792 68.301 43.8358 67.899 44.3615 67.6448C44.8879 67.3913 45.4396 67.358 46.0167 67.5448L52.475 69.8844C53.816 70.3385 55.2997 70.6299 56.926 70.7583C58.5524 70.8861 60.5646 70.958 62.9625 70.974H64.0448C64.0448 69.676 63.8059 68.6264 63.3281 67.825C62.8503 67.0236 62.1653 66.4656 61.2729 66.151L37.299 57.3521C37.1385 57.2993 36.9913 57.2594 36.8573 57.2323C36.724 57.2059 36.5771 57.1927 36.4167 57.1927H27.6667V77.224L58.4688 86.1823ZM57.4031 90.301L27.6667 81.599C27.2715 83.2448 26.4316 84.5563 25.1469 85.5333C23.8622 86.5111 22.4587 87 20.9365 87H17.7313C15.8806 87 14.2958 86.341 12.9771 85.0229C11.659 83.7049 11 82.1201 11 80.2688V59.7562C11 57.9056 11.659 56.3212 12.9771 55.0031C14.2958 53.6851 15.8806 53.026 17.7313 53.026H36.325C36.7125 53.026 37.1118 53.0698 37.5229 53.1573C37.934 53.2455 38.316 53.3486 38.6688 53.4667L62.7469 62.2885C64.2372 62.8545 65.5205 63.8722 66.5969 65.3417C67.6733 66.8104 68.2115 68.6878 68.2115 70.974H80.7115C83.2226 70.974 85.1458 71.7594 86.4813 73.3302C87.8167 74.9003 88.4844 76.8927 88.4844 79.3073C88.4844 80.1406 88.2587 80.8444 87.8073 81.4187C87.3559 81.993 86.6976 82.4247 85.8323 82.7135L61.3125 90.2771C60.709 90.4479 60.0708 90.5469 59.3979 90.574C58.725 90.6003 58.0601 90.5094 57.4031 90.301ZM15.1667 80.2688C15.1667 81.0167 15.4073 81.6313 15.8885 82.1125C16.3691 82.5931 16.9833 82.8333 17.7313 82.8333H20.9365C21.6844 82.8333 22.2986 82.633 22.7792 82.2323C23.2597 81.8316 23.5 81.1771 23.5 80.2688V57.1927H17.7313C16.9833 57.1927 16.3691 57.433 15.8885 57.9135C15.4073 58.3941 15.1667 59.0083 15.1667 59.7562V80.2688ZM66.3677 48.4906C65.5406 48.4906 64.7274 48.3396 63.9281 48.0375C63.1288 47.7361 62.3986 47.2833 61.7375 46.6792L50.6802 36.0708C48.8476 34.3076 47.3184 32.3354 46.0927 30.1542C44.8663 27.9722 44.2531 25.5962 44.2531 23.026C44.2531 19.9628 45.3254 17.3594 47.4698 15.2156C49.6135 13.0719 52.2167 12 55.2792 12C57.5549 12 59.625 12.6156 61.4896 13.8469C63.3535 15.0781 64.9799 16.5726 66.3688 18.3302C67.7576 16.5726 69.3844 15.0781 71.249 13.8469C73.1128 12.6156 75.1826 12 77.4583 12C80.5215 12 83.125 13.0719 85.2688 15.2156C87.4125 17.3594 88.4844 19.9628 88.4844 23.026C88.4844 25.5962 87.8754 27.9722 86.6573 30.1542C85.4392 32.3354 83.9142 34.3076 82.0823 36.0708L71 46.6792C70.3382 47.2833 69.6076 47.7361 68.8083 48.0375C68.0083 48.3396 67.1948 48.4906 66.3677 48.4906ZM68.1323 43.6823L78.8448 33.4187C80.3247 31.9924 81.6066 30.4125 82.6906 28.6792C83.7754 26.9451 84.3177 25.0608 84.3177 23.026C84.3177 21.124 83.65 19.5052 82.3146 18.1698C80.9792 16.8344 79.3604 16.1667 77.4583 16.1667C75.7917 16.1667 74.2976 16.6649 72.976 17.6615C71.6538 18.6573 70.4663 19.8309 69.4135 21.1823L68.7167 22.024C68.1139 22.7823 67.3358 23.1615 66.3823 23.1615C65.4281 23.1615 64.641 22.7823 64.0208 22.024L63.324 21.1823C62.2719 19.8309 61.0847 18.6573 59.7625 17.6615C58.4403 16.6649 56.9458 16.1667 55.2792 16.1667C53.3778 16.1667 51.7594 16.8344 50.424 18.1698C49.0878 19.5052 48.4198 21.124 48.4198 23.026C48.4198 25.0608 48.9622 26.9451 50.0469 28.6792C51.1316 30.4125 52.4135 31.9924 53.8927 33.4187L64.6063 43.6823C65.0868 44.1635 65.6743 44.4042 66.3688 44.4042C67.0632 44.4042 67.651 44.1635 68.1323 43.6823Z" fill="#777777"/>
</g>
</svg>
