<svg width="24" height="24" viewBox="0 0 24 24" fill="none" xmlns="http://www.w3.org/2000/svg">
<mask id="mask0_295_558" style="mask-type:alpha" maskUnits="userSpaceOnUse" x="0" y="0" width="24" height="24">
<rect width="24" height="24" fill="#D9D9D9"/>
</mask>
<g mask="url(#mask0_295_558)">
<path d="M12.5 11.7923V7.5C12.5 7.35833 12.452 7.23958 12.356 7.14375C12.26 7.04792 12.1411 7 11.9993 7C11.8574 7 11.7388 7.04792 11.6433 7.14375C11.5478 7.23958 11.5 7.35833 11.5 7.5V11.8787C11.5 11.9809 11.5186 12.0799 11.5558 12.1757C11.5929 12.2714 11.6551 12.3628 11.7423 12.45L15.2923 16C15.3859 16.0937 15.5007 16.1437 15.6365 16.15C15.7725 16.1563 15.8937 16.1063 16 16C16.1063 15.8937 16.1595 15.7758 16.1595 15.6463C16.1595 15.5168 16.1063 15.3988 16 15.2923L12.5 11.7923ZM12.0033 21C10.7587 21 9.58867 20.7638 8.493 20.2915C7.3975 19.8192 6.4445 19.1782 5.634 18.3685C4.8235 17.5588 4.18192 16.6067 3.70925 15.512C3.23642 14.4175 3 13.2479 3 12.0033C3 10.7587 3.23617 9.58867 3.7085 8.493C4.18083 7.3975 4.82183 6.4445 5.6315 5.634C6.44117 4.8235 7.39333 4.18192 8.488 3.70925C9.5825 3.23642 10.7521 3 11.9967 3C13.2413 3 14.4113 3.23617 15.507 3.7085C16.6025 4.18083 17.5555 4.82183 18.366 5.6315C19.1765 6.44117 19.8181 7.39333 20.2908 8.488C20.7636 9.5825 21 10.7521 21 11.9967C21 13.2413 20.7638 14.4113 20.2915 15.507C19.8192 16.6025 19.1782 17.5555 18.3685 18.366C17.5588 19.1765 16.6067 19.8181 15.512 20.2908C14.4175 20.7636 13.2479 21 12.0033 21ZM12 20C14.2167 20 16.1042 19.2208 17.6625 17.6625C19.2208 16.1042 20 14.2167 20 12C20 9.78333 19.2208 7.89583 17.6625 6.3375C16.1042 4.77917 14.2167 4 12 4C9.78333 4 7.89583 4.77917 6.3375 6.3375C4.77917 7.89583 4 9.78333 4 12C4 14.2167 4.77917 16.1042 6.3375 17.6625C7.89583 19.2208 9.78333 20 12 20Z" fill="#221F1C"/>
</g>
</svg>
